<?xml version="1.0" encoding="UTF-8"?>
<svg xmlns="http://www.w3.org/2000/svg" xmlns:xlink="http://www.w3.org/1999/xlink" width="320" height="120" viewBox="0 0 320 120" role="img" aria-labelledby="title desc">
  <title id="title">Karan Singh • Social links</title>
  <desc id="desc">A horizontal card with five icon buttons linking to X, LinkedIn, Medium, Instagram, and Email.</desc>
  <style>
    :root { --border: #d0d7de; --bg: #ffffff; --fg: #0b121a; }
    @media (prefers-color-scheme: dark) {
      :root { --border: #2d333b; --bg: #0b121a; --fg: #e6edf3; }
    }
    .card { fill: var(--bg); stroke: var(--border); }
    .btn { fill: transparent; stroke: var(--border); }
    .icon { color: var(--fg); }
    .icon path { fill: currentColor !important; }
  </style>

  <defs>
    <symbol id="icon-x" viewBox="0 0 24 24">
      <path d="M14.234 10.162 22.977 0h-2.072l-7.591 8.824L7.251 0H.258l9.168 13.343L.258 24H2.33l8.016-9.318L16.749 24h6.993zm-2.837 3.299-.929-1.329L3.076 1.56h3.182l5.965 8.532.929 1.329 7.754 11.09h-3.182z"/>
    </symbol>
    <symbol id="icon-linkedin" viewBox="0 0 24 24">
      <path d="M20.447 20.452h-3.554v-5.569c0-1.328-.027-3.037-1.852-3.037-1.853 0-2.136 1.445-2.136 2.939v5.667H9.351V9h3.414v1.561h.046c.477-.9 1.637-1.85 3.37-1.85 3.601 0 4.267 2.37 4.267 5.455v6.286zM5.337 7.433c-1.144 0-2.063-.926-2.063-2.065 0-1.138.92-2.063 2.063-2.063 1.14 0 2.064.925 2.064 2.063 0 1.139-.925 2.065-2.064 2.065zm1.782 13.019H3.555V9h3.564v11.452zM22.225 0H1.771C.792 0 0 .774 0 1.729v20.542C0 23.227.792 24 1.771 24h20.451C23.2 24 24 23.227 24 22.271V1.729C24 .774 23.2 0 22.222 0h.003z"/>
    </symbol>
    <symbol id="icon-medium" viewBox="0 0 24 24">
      <path d="M4.21 0A4.201 4.201 0 0 0 0 4.21v15.58A4.201 4.201 0 0 0 4.21 24h15.58A4.201 4.201 0 0 0 24 19.79v-1.093c-.137.013-.278.02-.422.02-2.577 0-4.027-2.146-4.09-4.832a7.592 7.592 0 0 1 .022-.708c.093-1.186.475-2.241 1.105-3.022a3.885 3.885 0 0 1 1.395-1.1c.468-.237 1.127-.367 1.664-.367h.023c.101 0 .202.004.303.01V4.211A4.201 4.201 0 0 0 19.79 0Zm.198 5.583h4.165l3.588 8.435 3.59-8.435h3.864v.146l-.019.004c-.705.16-1.063.397-1.063 1.254h-.003l.003 10.274c.06.676.424.885 1.063 1.03l.02.004v.145h-4.923v-.145l.019-.005c.639-.144.994-.353 1.054-1.03V7.267l-4.745 11.15h-.261L6.15 7.569v9.445c0 .857.358 1.094 1.063 1.253l.02.004v.147H4.405v-.147l.019-.004c.705-.16 1.065-.397 1.065-1.253V6.987c0-.857-.358-1.094-1.064-1.254l-.018-.004zm19.25 3.668c-1.086.023-1.733 1.323-1.813 3.124H24V9.298a1.378 1.378 0 0 0-.342-.047Zm-1.862 3.632c-.1 1.756.86 3.239 2.204 3.634v-3.634z"/>
    </symbol>
    <symbol id="icon-instagram" viewBox="0 0 24 24">
      <path d="M7.0301.084c-1.2768.0602-2.1487.264-2.911.5634-.7888.3075-1.4575.72-2.1228 1.3877-.6652.6677-1.075 1.3368-1.3802 2.127-.2954.7638-.4956 1.6365-.552 2.914-.0564 1.2775-.0689 1.6882-.0626 4.947.0062 3.2586.0206 3.6671.0825 4.9473.061 1.2765.264 2.1482.5635 2.9107.308.7889.72 1.4573 1.388 2.1228.6679.6655 1.3365 1.0743 2.1285 1.38.7632.295 1.6361.4961 2.9134.552 1.2773.056 1.6884.069 4.9462.0627 3.2578-.0062 3.668-.0207 4.9478-.0814 1.28-.0607 2.147-.2652 2.9098-.5633.7889-.3086 1.4578-.72 2.1228-1.3881.665-.6682 1.0745-1.3378 1.3795-2.1284.2957-.7632.4966-1.636.552-2.9124.056-1.2809.0692-1.6898.063-4.948-.0063-3.2583-.021-3.6668-.0817-4.9465-.0607-1.2797-.264-2.1487-.5633-2.9117-.3084-.7889-.72-1.4568-1.3876-2.1228C21.2982 1.33 20.628.9208 19.8378.6165 19.074.321 18.2017.1197 16.9244.0645 15.6471.0093 15.236-.005 11.977.0014 8.718.0076 8.31.0215 7.0301.0839m.1402 21.6932c-1.17-.0509-1.8053-.2453-2.2287-.408-.5606-.216-.96-.4771-1.3819-.895-.422-.4178-.6811-.8186-.9-1.378-.1644-.4234-.3624-1.058-.4171-2.228-.0595-1.2645-.072-1.6442-.079-4.848-.007-3.2037.0053-3.583.0607-4.848.05-1.169.2456-1.805.408-2.2282.216-.5613.4762-.96.895-1.3816.4188-.4217.8184-.6814 1.3783-.9003.423-.1651 1.0575-.3614 2.227-.4171 1.2655-.06 1.6447-.072 4.848-.079 3.2033-.007 3.5835.005 4.8495.0608 1.169.0508 1.8053.2445 2.228.408.5608.216.96.4754 1.3816.895.4217.4194.6816.8176.9005 1.3787.1653.4217.3617 1.056.4169 2.2263.0602 1.2655.0739 1.645.0796 4.848.0058 3.203-.0055 3.5834-.061 4.848-.051 1.17-.245 1.8055-.408 2.2294-.216.5604-.4763.96-.8954 1.3814-.419.4215-.8181.6811-1.3783.9-.4224.1649-1.0577.3617-2.2262.4174-1.2656.0595-1.6448.072-4.8493.079-3.2045.007-3.5825-.006-4.848-.0608M16.953 5.5864A1.44 1.44 0 1 0 18.39 4.144a1.44 1.44 0 0 0-1.437 1.4424M5.8385 12.012c.0067 3.4032 2.7706 6.1557 6.173 6.1493 3.4026-.0065 6.157-2.7701 6.1506-6.1733-.0065-3.4032-2.771-6.1565-6.174-6.1498-3.403.0067-6.156 2.771-6.1496 6.1738M8 12.0077a4 4 0 1 1 4.008 3.9921A3.9996 3.9996 0 0 1 8 12.0077"/>
    </symbol>
    <symbol id="icon-protonmail" viewBox="0 0 24 24">
      <path d="m15.24 8.998 3.656-3.073v15.81H2.482C1.11 21.735 0 20.609 0 19.223V6.944l7.58 6.38a2.186 2.186 0 0 0 2.871-.042l4.792-4.284h-.003zm-5.456 3.538 1.809-1.616a2.438 2.438 0 0 1-1.178-.533L.905 2.395A.552.552 0 0 0 0 2.826v2.811l8.226 6.923a1.186 1.186 0 0 0 1.558-.024zM23.871 2.463a.551.551 0 0 0-.776-.068l-3.199 2.688v16.653h1.623c1.371 0 2.481-1.127 2.481-2.513V2.824a.551.551 0 0 0-.129-.36z"/>
    </symbol>
  </defs>

  <!-- Background -->
  <rect x="0" y="0" width="320" height="120" fill="var(--bg)"/>

  <!-- Card container -->
  <g id="card" transform="translate(18,22)">
    <rect class="card" x="0" y="0" width="284" height="76" rx="12" ry="12" />

    <!-- Buttons group: padding 16, button 44, gap 8 -->
    <g id="buttons" transform="translate(16,16)">
      <!-- Button 1: X -->
      <a xlink:href="https://twitter.com/karan5ingh" target="_blank">
        <title>X (formerly Twitter) - @karan_51ngh</title>
        <rect class="btn" x="0" y="0" width="44" height="44" rx="8" ry="8" />
        <g class="icon" transform="translate(10,10)">
          <use href="#icon-x" width="24" height="24" />
        </g>
      </a>

      <!-- Button 2: LinkedIn -->
      <a xlink:href="https://linkedin.com/in/karan51ngh" target="_blank">
        <title>LinkedIn - karan51ngh</title>
        <rect class="btn" x="52" y="0" width="44" height="44" rx="8" ry="8" />
        <g class="icon" transform="translate(62,10)">
          <use href="#icon-linkedin" width="24" height="24" />
        </g>
      </a>

      <!-- Button 3: Medium -->
      <a xlink:href="https://karan51ngh.medium.com" target="_blank">
        <title>Medium - karan51ngh</title>
        <rect class="btn" x="104" y="0" width="44" height="44" rx="8" ry="8" />
        <g class="icon" transform="translate(114,10)">
          <use href="#icon-medium" width="24" height="24" />
        </g>
      </a>

      <!-- Button 4: Instagram -->
      <a xlink:href="https://www.instagram.com/karan51ngh/" target="_blank">
        <title>Instagram - @karan51ngh</title>
        <rect class="btn" x="156" y="0" width="44" height="44" rx="8" ry="8" />
        <g class="icon" transform="translate(166,10)">
          <use href="#icon-instagram" width="24" height="24" />
        </g>
      </a>

      <!-- Button 5: Email -->
      <a xlink:href="mailto:karansingh9535@gmail.com">
        <title>Email - karansingh9535@gmail.com</title>
        <rect class="btn" x="208" y="0" width="44" height="44" rx="8" ry="8" />
        <g class="icon" transform="translate(218,10)">
          <use href="#icon-protonmail" width="24" height="24" />
        </g>
      </a>
    </g>
  </g>
</svg>
